<?xml version="1.0" encoding="UTF-8"?>
<svg xmlns="http://www.w3.org/2000/svg" version="1.1" viewBox="0 0 640 512">
  <!-- Generator: Adobe Illustrator 29.6.1, SVG Export Plug-In . SVG Version: 2.1.1 Build 9)  -->
  <defs>
    <style>
      .st0 {
        fill: #333331;
      }
    </style>
  </defs>
  <g id="Layer_1" focusable="false">
    <path class="st0" d="M319.9,320c57.4,0,103.1-46.6,103.1-104s-46.5-104-103.1-104-103.1,46.6-103.1,104c-.9,57.4,45.7,104,103.1,104ZM369.9,352h-99.8c-78.5,0-142.1,59.7-142.1,133.3s12.7,26.7,28.4,26.7h327.2c15.7,0,28.4-11.9,28.4-26.7,0-73.6-63.6-133.3-142.1-133.3ZM512,160c44.2,0,80-35.8,80-80S556.2,0,512,0s-80,35.8-80,80,35.8,80,80,80ZM183.9,216c0-5.4,1-10.6,1.6-15.9-10.9-6-22.9-8.1-35.6-8.1h-61.8C39.4,192,0,233.8,0,285.3s7.9,18.7,17.6,18.7h199.5c-20.4-23.8-33.2-54.3-33.2-88ZM128,160c44.2,0,80-35.8,80-80S172.2,0,128,0,48,35.8,48,80s35.8,80,80,80ZM551.9,192h-61.8c-12.8,0-24.9,3-35.9,8.2.6,5.3,1.6,10.4,1.6,15.8,0,33.7-12.8,64.2-33.2,88h199.7c9.8,0,17.7-8.4,17.7-18.7,0-51.5-39.4-93.3-88.1-93.3Z"/>
  </g>
</svg>